<svg width="181" height="75" viewBox="0 0 181 75" fill="none" xmlns="http://www.w3.org/2000/svg">
<path d="M161.737 75.0001V49.0655H151.27V42.0562H180.802V49.0655H170.335V75.0001H161.737Z" fill="white"/>
<path d="M118.062 75.0001L133.483 42.0562H140.259L155.679 75.0001H147.081L144.231 68.3178H129.511L126.661 75.0001H118.062ZM136.801 51.0281L132.315 61.7291H141.38L136.894 51.0281H136.801Z" fill="#D8FF84"/>
<path d="M85.2969 75.0001V42.0562H93.895V54.7664H107.493V42.0562H116.045V75.0001H107.493V61.8225H93.895V75.0001H85.2969Z" fill="white"/>
<path d="M41.9357 75.0001L30.1133 42.0562H38.8983L45.7675 62.7104L53.1974 42.0562H59.2722L66.375 63.1309L73.5712 42.0562H81.8423L69.9264 75.0001H63.0572L56.0011 55.187L48.8049 75.0001H41.9357Z" fill="white"/>
<path d="M131.62 32.9439V7.00935H121.152V0H150.685V7.00935H140.218V32.9439H131.62Z" fill="white"/>
<path d="M87.9492 32.9439L103.37 0H110.145L125.566 32.9439H116.968L114.117 26.2617H99.3978L96.5473 32.9439H87.9492ZM106.688 8.97196L102.202 19.6729H111.267L106.781 8.97196H106.688Z" fill="white"/>
<path d="M55.1836 32.9439V0H63.7817V12.7103H77.3799V0H85.9313V32.9439H77.3799V19.7664H63.7817V32.9439H55.1836Z" fill="#D8FF84"/>
<path d="M11.8224 32.9439L0 0H8.78505L15.6542 20.6542L23.0841 0H29.1589L36.2617 21.0748L43.4579 0H51.729L39.8131 32.9439H32.9439L25.8878 13.1308L18.6916 32.9439H11.8224Z" fill="white"/>
</svg>
