<svg width="1084" height="1023" viewBox="0 0 1084 1023" fill="none" xmlns="http://www.w3.org/2000/svg">
<path d="M73.235 1022.52L18.5929 743.693C-2.44301 636.351 -4.92199 533.528 11.156 435.224C29.852 336.407 73.6765 234.025 142.63 128.079L318.108 211.951C272.823 286.074 242.477 353.19 227.071 413.301C211.151 470.794 205.704 526.235 210.729 579.623L395.306 543.452L473.805 944.022L73.235 1022.52ZM725.144 894.767L670.502 615.939C649.466 508.596 646.987 405.773 663.065 307.47C681.761 208.653 725.585 106.271 794.538 0.323872L970.016 84.1968C924.732 158.319 894.386 225.436 878.98 285.547C863.06 343.039 857.613 398.48 862.638 451.868L1047.21 415.697L1125.71 816.267L725.144 894.767Z" fill="#D8FF84"/>
</svg>
