
        <svg
          xmlns="http://www.w3.org/2000/svg"
          xmlns:xlink="http://www.w3.org/1999/xlink"
          viewBox="0 0 512 512"
          width="512"
          height="512"
          preserveAspectRatio="xMidYMid meet"
          style="
            width: 100%;
            height: 100%;
            transform: translate3d(0px, 0px, 0px);
            content-visibility: visible;
          "
        >
          <defs>
            <clipPath id="__lottie_element_2">
              <rect width="512" height="512" x="0" y="0"></rect>
            </clipPath>
          </defs>
          <g clip-path="url(#__lottie_element_2)">
            <g
              transform="matrix(0.75,0,0,1,245.08050537109375,250.6529998779297)"
              opacity="1"
              style="display: block"
            >
              <g
                opacity="1"
                transform="matrix(1,0,0,1,23.381999969482422,5.3470001220703125)"
              >
                <path
                  fill="rgb(216,255,131)"
                  fill-opacity="1"
                  d=" M4,-107.82542419433594 C4,-107.82542419433594 4,107.82542419433594 4,107.82542419433594 C4,110.03302764892578 2.2076001167297363,111.82542419433594 0,111.82542419433594 C0,111.82542419433594 0,111.82542419433594 0,111.82542419433594 C-2.2076001167297363,111.82542419433594 -4,110.03302764892578 -4,107.82542419433594 C-4,107.82542419433594 -4,-107.82542419433594 -4,-107.82542419433594 C-4,-110.03302764892578 -2.2076001167297363,-111.82542419433594 0,-111.82542419433594 C0,-111.82542419433594 0,-111.82542419433594 0,-111.82542419433594 C2.2076001167297363,-111.82542419433594 4,-110.03302764892578 4,-107.82542419433594z"
                ></path>
              </g>
            </g>
            <g
              transform="matrix(0.75,0,0,0.4399999976158142,259.81549072265625,253.64732360839844)"
              opacity="1"
              style="display: block"
            >
              <g
                opacity="1"
                transform="matrix(1,0,0,1,23.381999969482422,5.3470001220703125)"
              >
                <path
                  fill="rgb(216,255,131)"
                  fill-opacity="1"
                  d=" M4,-88.28399658203125 C4,-88.28399658203125 4,88.28399658203125 4,88.28399658203125 C4,90.4916000366211 2.2076001167297363,92.28399658203125 0,92.28399658203125 C0,92.28399658203125 0,92.28399658203125 0,92.28399658203125 C-2.2076001167297363,92.28399658203125 -4,90.4916000366211 -4,88.28399658203125 C-4,88.28399658203125 -4,-88.28399658203125 -4,-88.28399658203125 C-4,-90.4916000366211 -2.2076001167297363,-92.28399658203125 0,-92.28399658203125 C0,-92.28399658203125 0,-92.28399658203125 0,-92.28399658203125 C2.2076001167297363,-92.28399658203125 4,-90.4916000366211 4,-88.28399658203125z"
                ></path>
              </g>
            </g>
            <g
              transform="matrix(0.75,0,0,0.75,230.34649658203125,251.98974609375)"
              opacity="1"
              style="display: block"
            >
              <g
                opacity="1"
                transform="matrix(1,0,0,1,23.381999969482422,5.3470001220703125)"
              >
                <path
                  fill="rgb(216,255,131)"
                  fill-opacity="1"
                  d=" M4,-54.683998107910156 C4,-54.683998107910156 4,54.683998107910156 4,54.683998107910156 C4,56.891597747802734 2.2076001167297363,58.683998107910156 0,58.683998107910156 C0,58.683998107910156 0,58.683998107910156 0,58.683998107910156 C-2.2076001167297363,58.683998107910156 -4,56.891597747802734 -4,54.683998107910156 C-4,54.683998107910156 -4,-54.683998107910156 -4,-54.683998107910156 C-4,-56.891597747802734 -2.2076001167297363,-58.683998107910156 0,-58.683998107910156 C0,-58.683998107910156 0,-58.683998107910156 0,-58.683998107910156 C2.2076001167297363,-58.683998107910156 4,-56.891597747802734 4,-54.683998107910156z"
                ></path>
              </g>
            </g>
            <g
              transform="matrix(0.75,0,0,0.44999998807907104,215.6114959716797,253.59385681152344)"
              opacity="1"
              style="display: block"
            >
              <g
                opacity="1"
                transform="matrix(1,0,0,1,23.381999969482422,5.3470001220703125)"
              >
                <path
                  fill="rgb(216,255,131)"
                  fill-opacity="1"
                  d=" M4,-13.90250015258789 C4,-13.90250015258789 4,13.90250015258789 4,13.90250015258789 C4,16.11009979248047 2.2076001167297363,17.90250015258789 0,17.90250015258789 C0,17.90250015258789 0,17.90250015258789 0,17.90250015258789 C-2.2076001167297363,17.90250015258789 -4,16.11009979248047 -4,13.90250015258789 C-4,13.90250015258789 -4,-13.90250015258789 -4,-13.90250015258789 C-4,-16.11009979248047 -2.2076001167297363,-17.90250015258789 0,-17.90250015258789 C0,-17.90250015258789 0,-17.90250015258789 0,-17.90250015258789 C2.2076001167297363,-17.90250015258789 4,-16.11009979248047 4,-13.90250015258789z"
                ></path>
              </g>
            </g>
            <g
              transform="matrix(0.75,0,0,0.44999998807907104,274.5505065917969,253.59385681152344)"
              opacity="1"
              style="display: block"
            >
              <g
                opacity="1"
                transform="matrix(1,0,0,1,23.381999969482422,5.3470001220703125)"
              >
                <path
                  fill="rgb(216,255,131)"
                  fill-opacity="1"
                  d=" M4,-37.88399887084961 C4,-37.88399887084961 4,37.88399887084961 4,37.88399887084961 C4,40.09159851074219 2.2076001167297363,41.88399887084961 0,41.88399887084961 C0,41.88399887084961 0,41.88399887084961 0,41.88399887084961 C-2.2076001167297363,41.88399887084961 -4,40.09159851074219 -4,37.88399887084961 C-4,37.88399887084961 -4,-37.88399887084961 -4,-37.88399887084961 C-4,-40.09159851074219 -2.2076001167297363,-41.88399887084961 0,-41.88399887084961 C0,-41.88399887084961 0,-41.88399887084961 0,-41.88399887084961 C2.2076001167297363,-41.88399887084961 4,-40.09159851074219 4,-37.88399887084961z"
                ></path>
              </g>
            </g>
            <g
              transform="matrix(0.75,0,0,0.550000011920929,289.2854919433594,253.05914306640625)"
              opacity="1"
              style="display: block"
            >
              <g
                opacity="1"
                transform="matrix(1,0,0,1,23.381999969482422,5.3470001220703125)"
              >
                <path
                  fill="rgb(216,255,131)"
                  fill-opacity="1"
                  d=" M4,-105.72100067138672 C4,-105.72100067138672 4,105.72100067138672 4,105.72100067138672 C4,107.92860412597656 2.2076001167297363,109.72100067138672 0,109.72100067138672 C0,109.72100067138672 0,109.72100067138672 0,109.72100067138672 C-2.2076001167297363,109.72100067138672 -4,107.92860412597656 -4,105.72100067138672 C-4,105.72100067138672 -4,-105.72100067138672 -4,-105.72100067138672 C-4,-107.92860412597656 -2.2076001167297363,-109.72100067138672 0,-109.72100067138672 C0,-109.72100067138672 0,-109.72100067138672 0,-109.72100067138672 C2.2076001167297363,-109.72100067138672 4,-107.92860412597656 4,-105.72100067138672z"
                ></path>
              </g>
            </g>
            <g
              transform="matrix(0.75,0,0,0.550000011920929,24.058502197265625,253.05914306640625)"
              opacity="1"
              style="display: block"
            >
              <g
                opacity="1"
                transform="matrix(1,0,0,1,23.381999969482422,5.3470001220703125)"
              >
                <path
                  fill="rgb(216,255,131)"
                  fill-opacity="1"
                  d=" M4,-105.72100067138672 C4,-105.72100067138672 4,105.72100067138672 4,105.72100067138672 C4,107.92860412597656 2.2076001167297363,109.72100067138672 0,109.72100067138672 C0,109.72100067138672 0,109.72100067138672 0,109.72100067138672 C-2.2076001167297363,109.72100067138672 -4,107.92860412597656 -4,105.72100067138672 C-4,105.72100067138672 -4,-105.72100067138672 -4,-105.72100067138672 C-4,-107.92860412597656 -2.2076001167297363,-109.72100067138672 0,-109.72100067138672 C0,-109.72100067138672 0,-109.72100067138672 0,-109.72100067138672 C2.2076001167297363,-109.72100067138672 4,-107.92860412597656 4,-105.72100067138672z"
                ></path>
              </g>
            </g>
            <g
              transform="matrix(0.75,0,0,0.7799999713897705,304.0205078125,251.829345703125)"
              opacity="1"
              style="display: block"
            >
              <g
                opacity="1"
                transform="matrix(1,0,0,1,23.381999969482422,5.3470001220703125)"
              >
                <path
                  fill="rgb(216,255,131)"
                  fill-opacity="1"
                  d=" M4,-54.683998107910156 C4,-54.683998107910156 4,54.683998107910156 4,54.683998107910156 C4,56.891597747802734 2.2076001167297363,58.683998107910156 0,58.683998107910156 C0,58.683998107910156 0,58.683998107910156 0,58.683998107910156 C-2.2076001167297363,58.683998107910156 -4,56.891597747802734 -4,54.683998107910156 C-4,54.683998107910156 -4,-54.683998107910156 -4,-54.683998107910156 C-4,-56.891597747802734 -2.2076001167297363,-58.683998107910156 0,-58.683998107910156 C0,-58.683998107910156 0,-58.683998107910156 0,-58.683998107910156 C2.2076001167297363,-58.683998107910156 4,-56.891597747802734 4,-54.683998107910156z"
                ></path>
              </g>
            </g>
            <g
              transform="matrix(0.75,0,0,0.3700000047683716,318.7554931640625,254.0216064453125)"
              opacity="1"
              style="display: block"
            >
              <g
                opacity="1"
                transform="matrix(1,0,0,1,23.381999969482422,5.3470001220703125)"
              >
                <path
                  fill="rgb(216,255,131)"
                  fill-opacity="1"
                  d=" M4,-83.2645034790039 C4,-83.2645034790039 4,83.2645034790039 4,83.2645034790039 C4,85.47210693359375 2.2076001167297363,87.2645034790039 0,87.2645034790039 C0,87.2645034790039 0,87.2645034790039 0,87.2645034790039 C-2.2076001167297363,87.2645034790039 -4,85.47210693359375 -4,83.2645034790039 C-4,83.2645034790039 -4,-83.2645034790039 -4,-83.2645034790039 C-4,-85.47210693359375 -2.2076001167297363,-87.2645034790039 0,-87.2645034790039 C0,-87.2645034790039 0,-87.2645034790039 0,-87.2645034790039 C2.2076001167297363,-87.2645034790039 4,-85.47210693359375 4,-83.2645034790039z"
                ></path>
              </g>
            </g>
            <g
              transform="matrix(0.75,0,0,0.2800000011920929,333.4905090332031,254.50283813476562)"
              opacity="1"
              style="display: block"
            >
              <g
                opacity="1"
                transform="matrix(1,0,0,1,23.381999969482422,5.3470001220703125)"
              >
                <path
                  fill="rgb(216,255,131)"
                  fill-opacity="1"
                  d=" M4,-94.9645004272461 C4,-94.9645004272461 4,94.9645004272461 4,94.9645004272461 C4,97.17210388183594 2.2076001167297363,98.9645004272461 0,98.9645004272461 C0,98.9645004272461 0,98.9645004272461 0,98.9645004272461 C-2.2076001167297363,98.9645004272461 -4,97.17210388183594 -4,94.9645004272461 C-4,94.9645004272461 -4,-94.9645004272461 -4,-94.9645004272461 C-4,-97.17210388183594 -2.2076001167297363,-98.9645004272461 0,-98.9645004272461 C0,-98.9645004272461 0,-98.9645004272461 0,-98.9645004272461 C2.2076001167297363,-98.9645004272461 4,-97.17210388183594 4,-94.9645004272461z"
                ></path>
              </g>
            </g>
            <g
              transform="matrix(0.75,0,0,0.18000000715255737,348.2244873046875,255.03753662109375)"
              opacity="1"
              style="display: block"
            >
              <g
                opacity="1"
                transform="matrix(1,0,0,1,23.381999969482422,5.3470001220703125)"
              >
                <path
                  fill="rgb(216,255,131)"
                  fill-opacity="1"
                  d=" M4,-67.62449645996094 C4,-67.62449645996094 4,67.62449645996094 4,67.62449645996094 C4,69.83209991455078 2.2076001167297363,71.62449645996094 0,71.62449645996094 C0,71.62449645996094 0,71.62449645996094 0,71.62449645996094 C-2.2076001167297363,71.62449645996094 -4,69.83209991455078 -4,67.62449645996094 C-4,67.62449645996094 -4,-67.62449645996094 -4,-67.62449645996094 C-4,-69.83209991455078 -2.2076001167297363,-71.62449645996094 0,-71.62449645996094 C0,-71.62449645996094 0,-71.62449645996094 0,-71.62449645996094 C2.2076001167297363,-71.62449645996094 4,-69.83209991455078 4,-67.62449645996094z"
                ></path>
              </g>
            </g>
            <g
              transform="matrix(0.75,0,0,0.27000001072883606,362.9595031738281,254.55630493164062)"
              opacity="1"
              style="display: block"
            >
              <g
                opacity="1"
                transform="matrix(1,0,0,1,23.381999969482422,5.3470001220703125)"
              >
                <path
                  fill="rgb(216,255,131)"
                  fill-opacity="1"
                  d=" M4,-91.375 C4,-91.375 4,91.375 4,91.375 C4,93.58260345458984 2.2076001167297363,95.375 0,95.375 C0,95.375 0,95.375 0,95.375 C-2.2076001167297363,95.375 -4,93.58260345458984 -4,91.375 C-4,91.375 -4,-91.375 -4,-91.375 C-4,-93.58260345458984 -2.2076001167297363,-95.375 0,-95.375 C0,-95.375 0,-95.375 0,-95.375 C2.2076001167297363,-95.375 4,-93.58260345458984 4,-91.375z"
                ></path>
              </g>
            </g>
            <g
              transform="matrix(0.75,0,0,0.4699999988079071,377.6944885253906,253.48690795898438)"
              opacity="1"
              style="display: block"
            >
              <g
                opacity="1"
                transform="matrix(1,0,0,1,23.381999969482422,5.3470001220703125)"
              >
                <path
                  fill="rgb(216,255,131)"
                  fill-opacity="1"
                  d=" M4,-24.768999099731445 C4,-24.768999099731445 4,24.768999099731445 4,24.768999099731445 C4,26.976598739624023 2.2076001167297363,28.768999099731445 0,28.768999099731445 C0,28.768999099731445 0,28.768999099731445 0,28.768999099731445 C-2.2076001167297363,28.768999099731445 -4,26.976598739624023 -4,24.768999099731445 C-4,24.768999099731445 -4,-24.768999099731445 -4,-24.768999099731445 C-4,-26.976598739624023 -2.2076001167297363,-28.768999099731445 0,-28.768999099731445 C0,-28.768999099731445 0,-28.768999099731445 0,-28.768999099731445 C2.2076001167297363,-28.768999099731445 4,-26.976598739624023 4,-24.768999099731445z"
                ></path>
              </g>
            </g>
            <g
              transform="matrix(0.75,0,0,0.30000001192092896,407.16448974609375,254.39590454101562)"
              opacity="1"
              style="display: block"
            >
              <g
                opacity="1"
                transform="matrix(1,0,0,1,23.381999969482422,5.3470001220703125)"
              >
                <path
                  fill="rgb(216,255,131)"
                  fill-opacity="1"
                  d=" M4,-62.70050048828125 C4,-62.70050048828125 4,62.70050048828125 4,62.70050048828125 C4,64.9081039428711 2.2076001167297363,66.70050048828125 0,66.70050048828125 C0,66.70050048828125 0,66.70050048828125 0,66.70050048828125 C-2.2076001167297363,66.70050048828125 -4,64.9081039428711 -4,62.70050048828125 C-4,62.70050048828125 -4,-62.70050048828125 -4,-62.70050048828125 C-4,-64.9081039428711 -2.2076001167297363,-66.70050048828125 0,-66.70050048828125 C0,-66.70050048828125 0,-66.70050048828125 0,-66.70050048828125 C2.2076001167297363,-66.70050048828125 4,-64.9081039428711 4,-62.70050048828125z"
                ></path>
              </g>
            </g>
            <g
              transform="matrix(0.75,0,0,0.7599999904632568,392.42950439453125,251.936279296875)"
              opacity="1"
              style="display: block"
            >
              <g
                opacity="1"
                transform="matrix(1,0,0,1,23.381999969482422,5.3470001220703125)"
              >
                <path
                  fill="rgb(216,255,131)"
                  fill-opacity="1"
                  d=" M4,-66.375 C4,-66.375 4,66.375 4,66.375 C4,68.58260345458984 2.2076001167297363,70.375 0,70.375 C0,70.375 0,70.375 0,70.375 C-2.2076001167297363,70.375 -4,68.58260345458984 -4,66.375 C-4,66.375 -4,-66.375 -4,-66.375 C-4,-68.58260345458984 -2.2076001167297363,-70.375 0,-70.375 C0,-70.375 0,-70.375 0,-70.375 C2.2076001167297363,-70.375 4,-68.58260345458984 4,-66.375z"
                ></path>
              </g>
            </g>
            <g
              transform="matrix(0.75,0,0,0.5699999928474426,421.8995056152344,252.95220947265625)"
              opacity="1"
              style="display: block"
            >
              <g
                opacity="1"
                transform="matrix(1,0,0,1,23.381999969482422,5.3470001220703125)"
              >
                <path
                  fill="rgb(216,255,131)"
                  fill-opacity="1"
                  d=" M4,-103.875 C4,-103.875 4,103.875 4,103.875 C4,106.08260345458984 2.2076001167297363,107.875 0,107.875 C0,107.875 0,107.875 0,107.875 C-2.2076001167297363,107.875 -4,106.08260345458984 -4,103.875 C-4,103.875 -4,-103.875 -4,-103.875 C-4,-106.08260345458984 -2.2076001167297363,-107.875 0,-107.875 C0,-107.875 0,-107.875 0,-107.875 C2.2076001167297363,-107.875 4,-106.08260345458984 4,-103.875z"
                ></path>
              </g>
            </g>
            <g
              transform="matrix(0.75,0,0,0.5699999928474426,436.6335144042969,252.95220947265625)"
              opacity="1"
              style="display: block"
            >
              <g
                opacity="1"
                transform="matrix(1,0,0,1,23.381999969482422,5.3470001220703125)"
              >
                <path
                  fill="rgb(216,255,131)"
                  fill-opacity="1"
                  d=" M4,-105.72100067138672 C4,-105.72100067138672 4,105.72100067138672 4,105.72100067138672 C4,107.92860412597656 2.2076001167297363,109.72100067138672 0,109.72100067138672 C0,109.72100067138672 0,109.72100067138672 0,109.72100067138672 C-2.2076001167297363,109.72100067138672 -4,107.92860412597656 -4,105.72100067138672 C-4,105.72100067138672 -4,-105.72100067138672 -4,-105.72100067138672 C-4,-107.92860412597656 -2.2076001167297363,-109.72100067138672 0,-109.72100067138672 C0,-109.72100067138672 0,-109.72100067138672 0,-109.72100067138672 C2.2076001167297363,-109.72100067138672 4,-107.92860412597656 4,-105.72100067138672z"
                ></path>
              </g>
            </g>
            <g
              transform="matrix(0.75,0,0,0.18000000715255737,451.3684997558594,255.03753662109375)"
              opacity="1"
              style="display: block"
            >
              <g
                opacity="1"
                transform="matrix(1,0,0,1,23.381999969482422,5.3470001220703125)"
              >
                <path
                  fill="rgb(216,255,131)"
                  fill-opacity="1"
                  d=" M4,-66.375 C4,-66.375 4,66.375 4,66.375 C4,68.58260345458984 2.2076001167297363,70.375 0,70.375 C0,70.375 0,70.375 0,70.375 C-2.2076001167297363,70.375 -4,68.58260345458984 -4,66.375 C-4,66.375 -4,-66.375 -4,-66.375 C-4,-68.58260345458984 -2.2076001167297363,-70.375 0,-70.375 C0,-70.375 0,-70.375 0,-70.375 C2.2076001167297363,-70.375 4,-68.58260345458984 4,-66.375z"
                ></path>
              </g>
            </g>
            <g
              transform="matrix(0.75,0,0,0.46000000834465027,466.103515625,253.54037475585938)"
              opacity="1"
              style="display: block"
            >
              <g
                opacity="1"
                transform="matrix(1,0,0,1,23.381999969482422,5.3470001220703125)"
              >
                <path
                  fill="rgb(216,255,131)"
                  fill-opacity="1"
                  d=" M4,-27.15250015258789 C4,-27.15250015258789 4,27.15250015258789 4,27.15250015258789 C4,29.36009979248047 2.2076001167297363,31.15250015258789 0,31.15250015258789 C0,31.15250015258789 0,31.15250015258789 0,31.15250015258789 C-2.2076001167297363,31.15250015258789 -4,29.36009979248047 -4,27.15250015258789 C-4,27.15250015258789 -4,-27.15250015258789 -4,-27.15250015258789 C-4,-29.36009979248047 -2.2076001167297363,-31.15250015258789 0,-31.15250015258789 C0,-31.15250015258789 0,-31.15250015258789 0,-31.15250015258789 C2.2076001167297363,-31.15250015258789 4,-29.36009979248047 4,-27.15250015258789z"
                ></path>
              </g>
            </g>
            <g
              transform="matrix(0.75,0,0,0.3199999928474426,480.8385009765625,254.28895568847656)"
              opacity="1"
              style="display: block"
            >
              <g
                opacity="1"
                transform="matrix(1,0,0,1,23.381999969482422,5.3470001220703125)"
              >
                <path
                  fill="rgb(216,255,131)"
                  fill-opacity="1"
                  d=" M4,-10.08899974822998 C4,-10.08899974822998 4,10.08899974822998 4,10.08899974822998 C4,12.296599388122559 2.2076001167297363,14.08899974822998 0,14.08899974822998 C0,14.08899974822998 0,14.08899974822998 0,14.08899974822998 C-2.2076001167297363,14.08899974822998 -4,12.296599388122559 -4,10.08899974822998 C-4,10.08899974822998 -4,-10.08899974822998 -4,-10.08899974822998 C-4,-12.296599388122559 -2.2076001167297363,-14.08899974822998 0,-14.08899974822998 C0,-14.08899974822998 0,-14.08899974822998 0,-14.08899974822998 C2.2076001167297363,-14.08899974822998 4,-12.296599388122559 4,-10.08899974822998z"
                ></path>
              </g>
            </g>
            <g
              transform="matrix(0.75,0,0,0.3700000047683716,38.79350280761719,254.0216064453125)"
              opacity="1"
              style="display: block"
            >
              <g
                opacity="1"
                transform="matrix(1,0,0,1,23.381999969482422,5.3470001220703125)"
              >
                <path
                  fill="rgb(216,255,131)"
                  fill-opacity="1"
                  d=" M4,-83.2645034790039 C4,-83.2645034790039 4,83.2645034790039 4,83.2645034790039 C4,85.47210693359375 2.2076001167297363,87.2645034790039 0,87.2645034790039 C0,87.2645034790039 0,87.2645034790039 0,87.2645034790039 C-2.2076001167297363,87.2645034790039 -4,85.47210693359375 -4,83.2645034790039 C-4,83.2645034790039 -4,-83.2645034790039 -4,-83.2645034790039 C-4,-85.47210693359375 -2.2076001167297363,-87.2645034790039 0,-87.2645034790039 C0,-87.2645034790039 0,-87.2645034790039 0,-87.2645034790039 C2.2076001167297363,-87.2645034790039 4,-85.47210693359375 4,-83.2645034790039z"
                ></path>
              </g>
            </g>
            <g
              transform="matrix(0.75,0,0,0.2800000011920929,53.527503967285156,254.50283813476562)"
              opacity="1"
              style="display: block"
            >
              <g
                opacity="1"
                transform="matrix(1,0,0,1,23.381999969482422,5.3470001220703125)"
              >
                <path
                  fill="rgb(216,255,131)"
                  fill-opacity="1"
                  d=" M4,-94.9645004272461 C4,-94.9645004272461 4,94.9645004272461 4,94.9645004272461 C4,97.17210388183594 2.2076001167297363,98.9645004272461 0,98.9645004272461 C0,98.9645004272461 0,98.9645004272461 0,98.9645004272461 C-2.2076001167297363,98.9645004272461 -4,97.17210388183594 -4,94.9645004272461 C-4,94.9645004272461 -4,-94.9645004272461 -4,-94.9645004272461 C-4,-97.17210388183594 -2.2076001167297363,-98.9645004272461 0,-98.9645004272461 C0,-98.9645004272461 0,-98.9645004272461 0,-98.9645004272461 C2.2076001167297363,-98.9645004272461 4,-97.17210388183594 4,-94.9645004272461z"
                ></path>
              </g>
            </g>
            <g
              transform="matrix(0.75,0,0,0.18000000715255737,68.26250457763672,255.03753662109375)"
              opacity="1"
              style="display: block"
            >
              <g
                opacity="1"
                transform="matrix(1,0,0,1,23.381999969482422,5.3470001220703125)"
              >
                <path
                  fill="rgb(216,255,131)"
                  fill-opacity="1"
                  d=" M4,-67.62449645996094 C4,-67.62449645996094 4,67.62449645996094 4,67.62449645996094 C4,69.83209991455078 2.2076001167297363,71.62449645996094 0,71.62449645996094 C0,71.62449645996094 0,71.62449645996094 0,71.62449645996094 C-2.2076001167297363,71.62449645996094 -4,69.83209991455078 -4,67.62449645996094 C-4,67.62449645996094 -4,-67.62449645996094 -4,-67.62449645996094 C-4,-69.83209991455078 -2.2076001167297363,-71.62449645996094 0,-71.62449645996094 C0,-71.62449645996094 0,-71.62449645996094 0,-71.62449645996094 C2.2076001167297363,-71.62449645996094 4,-69.83209991455078 4,-67.62449645996094z"
                ></path>
              </g>
            </g>
            <g
              transform="matrix(0.75,0,0,0.27000001072883606,82.99749755859375,254.55630493164062)"
              opacity="1"
              style="display: block"
            >
              <g
                opacity="1"
                transform="matrix(1,0,0,1,23.381999969482422,5.3470001220703125)"
              >
                <path
                  fill="rgb(216,255,131)"
                  fill-opacity="1"
                  d=" M4,-91.375 C4,-91.375 4,91.375 4,91.375 C4,93.58260345458984 2.2076001167297363,95.375 0,95.375 C0,95.375 0,95.375 0,95.375 C-2.2076001167297363,95.375 -4,93.58260345458984 -4,91.375 C-4,91.375 -4,-91.375 -4,-91.375 C-4,-93.58260345458984 -2.2076001167297363,-95.375 0,-95.375 C0,-95.375 0,-95.375 0,-95.375 C2.2076001167297363,-95.375 4,-93.58260345458984 4,-91.375z"
                ></path>
              </g>
            </g>
            <g
              transform="matrix(0.75,0,0,0.4699999988079071,97.73249816894531,253.48690795898438)"
              opacity="1"
              style="display: block"
            >
              <g
                opacity="1"
                transform="matrix(1,0,0,1,23.381999969482422,5.3470001220703125)"
              >
                <path
                  fill="rgb(216,255,131)"
                  fill-opacity="1"
                  d=" M4,-24.768999099731445 C4,-24.768999099731445 4,24.768999099731445 4,24.768999099731445 C4,26.976598739624023 2.2076001167297363,28.768999099731445 0,28.768999099731445 C0,28.768999099731445 0,28.768999099731445 0,28.768999099731445 C-2.2076001167297363,28.768999099731445 -4,26.976598739624023 -4,24.768999099731445 C-4,24.768999099731445 -4,-24.768999099731445 -4,-24.768999099731445 C-4,-26.976598739624023 -2.2076001167297363,-28.768999099731445 0,-28.768999099731445 C0,-28.768999099731445 0,-28.768999099731445 0,-28.768999099731445 C2.2076001167297363,-28.768999099731445 4,-26.976598739624023 4,-24.768999099731445z"
                ></path>
              </g>
            </g>
            <g
              transform="matrix(0.75,0,0,0.30000001192092896,127.20249938964844,254.39590454101562)"
              opacity="1"
              style="display: block"
            >
              <g
                opacity="1"
                transform="matrix(1,0,0,1,23.381999969482422,5.3470001220703125)"
              >
                <path
                  fill="rgb(216,255,131)"
                  fill-opacity="1"
                  d=" M4,-62.70050048828125 C4,-62.70050048828125 4,62.70050048828125 4,62.70050048828125 C4,64.9081039428711 2.2076001167297363,66.70050048828125 0,66.70050048828125 C0,66.70050048828125 0,66.70050048828125 0,66.70050048828125 C-2.2076001167297363,66.70050048828125 -4,64.9081039428711 -4,62.70050048828125 C-4,62.70050048828125 -4,-62.70050048828125 -4,-62.70050048828125 C-4,-64.9081039428711 -2.2076001167297363,-66.70050048828125 0,-66.70050048828125 C0,-66.70050048828125 0,-66.70050048828125 0,-66.70050048828125 C2.2076001167297363,-66.70050048828125 4,-64.9081039428711 4,-62.70050048828125z"
                ></path>
              </g>
            </g>
            <g
              transform="matrix(0.75,0,0,0.7599999904632568,112.46749877929688,251.936279296875)"
              opacity="1"
              style="display: block"
            >
              <g
                opacity="1"
                transform="matrix(1,0,0,1,23.381999969482422,5.3470001220703125)"
              >
                <path
                  fill="rgb(216,255,131)"
                  fill-opacity="1"
                  d=" M4,-66.375 C4,-66.375 4,66.375 4,66.375 C4,68.58260345458984 2.2076001167297363,70.375 0,70.375 C0,70.375 0,70.375 0,70.375 C-2.2076001167297363,70.375 -4,68.58260345458984 -4,66.375 C-4,66.375 -4,-66.375 -4,-66.375 C-4,-68.58260345458984 -2.2076001167297363,-70.375 0,-70.375 C0,-70.375 0,-70.375 0,-70.375 C2.2076001167297363,-70.375 4,-68.58260345458984 4,-66.375z"
                ></path>
              </g>
            </g>
            <g
              transform="matrix(0.75,0,0,0.7599999904632568,-5.4114990234375,251.936279296875)"
              opacity="1"
              style="display: block"
            >
              <g
                opacity="1"
                transform="matrix(1,0,0,1,23.381999969482422,5.3470001220703125)"
              >
                <path
                  fill="rgb(216,255,131)"
                  fill-opacity="1"
                  d=" M4,-66.375 C4,-66.375 4,66.375 4,66.375 C4,68.58260345458984 2.2076001167297363,70.375 0,70.375 C0,70.375 0,70.375 0,70.375 C-2.2076001167297363,70.375 -4,68.58260345458984 -4,66.375 C-4,66.375 -4,-66.375 -4,-66.375 C-4,-68.58260345458984 -2.2076001167297363,-70.375 0,-70.375 C0,-70.375 0,-70.375 0,-70.375 C2.2076001167297363,-70.375 4,-68.58260345458984 4,-66.375z"
                ></path>
              </g>
            </g>
            <g
              transform="matrix(0.75,0,0,0.5699999928474426,141.93650817871094,252.95220947265625)"
              opacity="1"
              style="display: block"
            >
              <g
                opacity="1"
                transform="matrix(1,0,0,1,23.381999969482422,5.3470001220703125)"
              >
                <path
                  fill="rgb(216,255,131)"
                  fill-opacity="1"
                  d=" M4,-103.875 C4,-103.875 4,103.875 4,103.875 C4,106.08260345458984 2.2076001167297363,107.875 0,107.875 C0,107.875 0,107.875 0,107.875 C-2.2076001167297363,107.875 -4,106.08260345458984 -4,103.875 C-4,103.875 -4,-103.875 -4,-103.875 C-4,-106.08260345458984 -2.2076001167297363,-107.875 0,-107.875 C0,-107.875 0,-107.875 0,-107.875 C2.2076001167297363,-107.875 4,-106.08260345458984 4,-103.875z"
                ></path>
              </g>
            </g>
            <g
              transform="matrix(0.75,0,0,0.5699999928474426,156.67149353027344,252.95220947265625)"
              opacity="1"
              style="display: block"
            >
              <g
                opacity="1"
                transform="matrix(1,0,0,1,23.381999969482422,5.3470001220703125)"
              >
                <path
                  fill="rgb(216,255,131)"
                  fill-opacity="1"
                  d=" M4,-105.72100067138672 C4,-105.72100067138672 4,105.72100067138672 4,105.72100067138672 C4,107.92860412597656 2.2076001167297363,109.72100067138672 0,109.72100067138672 C0,109.72100067138672 0,109.72100067138672 0,109.72100067138672 C-2.2076001167297363,109.72100067138672 -4,107.92860412597656 -4,105.72100067138672 C-4,105.72100067138672 -4,-105.72100067138672 -4,-105.72100067138672 C-4,-107.92860412597656 -2.2076001167297363,-109.72100067138672 0,-109.72100067138672 C0,-109.72100067138672 0,-109.72100067138672 0,-109.72100067138672 C2.2076001167297363,-109.72100067138672 4,-107.92860412597656 4,-105.72100067138672z"
                ></path>
              </g>
            </g>
            <g
              transform="matrix(0.75,0,0,0.18000000715255737,171.406494140625,255.03753662109375)"
              opacity="1"
              style="display: block"
            >
              <g
                opacity="1"
                transform="matrix(1,0,0,1,23.381999969482422,5.3470001220703125)"
              >
                <path
                  fill="rgb(216,255,131)"
                  fill-opacity="1"
                  d=" M4,-66.375 C4,-66.375 4,66.375 4,66.375 C4,68.58260345458984 2.2076001167297363,70.375 0,70.375 C0,70.375 0,70.375 0,70.375 C-2.2076001167297363,70.375 -4,68.58260345458984 -4,66.375 C-4,66.375 -4,-66.375 -4,-66.375 C-4,-68.58260345458984 -2.2076001167297363,-70.375 0,-70.375 C0,-70.375 0,-70.375 0,-70.375 C2.2076001167297363,-70.375 4,-68.58260345458984 4,-66.375z"
                ></path>
              </g>
            </g>
            <g
              transform="matrix(0.75,0,0,0.18000000715255737,9.323501586914062,255.03753662109375)"
              opacity="1"
              style="display: block"
            >
              <g
                opacity="1"
                transform="matrix(1,0,0,1,23.381999969482422,5.3470001220703125)"
              >
                <path
                  fill="rgb(216,255,131)"
                  fill-opacity="1"
                  d=" M4,-66.375 C4,-66.375 4,66.375 4,66.375 C4,68.58260345458984 2.2076001167297363,70.375 0,70.375 C0,70.375 0,70.375 0,70.375 C-2.2076001167297363,70.375 -4,68.58260345458984 -4,66.375 C-4,66.375 -4,-66.375 -4,-66.375 C-4,-68.58260345458984 -2.2076001167297363,-70.375 0,-70.375 C0,-70.375 0,-70.375 0,-70.375 C2.2076001167297363,-70.375 4,-68.58260345458984 4,-66.375z"
                ></path>
              </g>
            </g>
            <g
              transform="matrix(0.75,0,0,0.46000000834465027,186.14149475097656,253.54037475585938)"
              opacity="1"
              style="display: block"
            >
              <g
                opacity="1"
                transform="matrix(1,0,0,1,23.381999969482422,5.3470001220703125)"
              >
                <path
                  fill="rgb(216,255,131)"
                  fill-opacity="1"
                  d=" M4,-27.15250015258789 C4,-27.15250015258789 4,27.15250015258789 4,27.15250015258789 C4,29.36009979248047 2.2076001167297363,31.15250015258789 0,31.15250015258789 C0,31.15250015258789 0,31.15250015258789 0,31.15250015258789 C-2.2076001167297363,31.15250015258789 -4,29.36009979248047 -4,27.15250015258789 C-4,27.15250015258789 -4,-27.15250015258789 -4,-27.15250015258789 C-4,-29.36009979248047 -2.2076001167297363,-31.15250015258789 0,-31.15250015258789 C0,-31.15250015258789 0,-31.15250015258789 0,-31.15250015258789 C2.2076001167297363,-31.15250015258789 4,-29.36009979248047 4,-27.15250015258789z"
                ></path>
              </g>
            </g>
            <g
              transform="matrix(0.75,0,0,0.3199999928474426,200.87649536132812,254.28895568847656)"
              opacity="1"
              style="display: block"
            >
              <g
                opacity="1"
                transform="matrix(1,0,0,1,23.381999969482422,5.3470001220703125)"
              >
                <path
                  fill="rgb(216,255,131)"
                  fill-opacity="1"
                  d=" M4,-10.08899974822998 C4,-10.08899974822998 4,10.08899974822998 4,10.08899974822998 C4,12.296599388122559 2.2076001167297363,14.08899974822998 0,14.08899974822998 C0,14.08899974822998 0,14.08899974822998 0,14.08899974822998 C-2.2076001167297363,14.08899974822998 -4,12.296599388122559 -4,10.08899974822998 C-4,10.08899974822998 -4,-10.08899974822998 -4,-10.08899974822998 C-4,-12.296599388122559 -2.2076001167297363,-14.08899974822998 0,-14.08899974822998 C0,-14.08899974822998 0,-14.08899974822998 0,-14.08899974822998 C2.2076001167297363,-14.08899974822998 4,-12.296599388122559 4,-10.08899974822998z"
                ></path>
              </g>
            </g>
          </g>
        </svg>